<svg xmlns="http://www.w3.org/2000/svg" viewBox="0 0 1240 600" font-family="-apple-system, BlinkMacSystemFont, 'Segoe UI', 'Noto Sans CJK SC', sans-serif">
  <defs>
    <linearGradient id="bg" x1="0" y1="0" x2="0" y2="1">
      <stop offset="0" stop-color="#0D1117"/>
      <stop offset="1" stop-color="#10151D"/>
    </linearGradient>
    <marker id="arrow" markerWidth="12" markerHeight="12" refX="8" refY="4" orient="auto">
      <path d="M0,0 L8,4 L0,8 Z" fill="#58A6FF"/>
    </marker>
    <marker id="arrowLoop" markerWidth="12" markerHeight="12" refX="8" refY="4" orient="auto">
      <path d="M0,0 L8,4 L0,8 Z" fill="#D29922"/>
    </marker>
  </defs>

  <rect x="0" y="0" width="1240" height="600" rx="20" fill="url(#bg)"/>
  <rect x="0.5" y="0.5" width="1239" height="599" rx="20" fill="none" stroke="#21262D" stroke-width="1"/>

  <!-- Title -->
  <text x="40" y="58" fill="#E6EDF3" font-size="30" font-weight="700">全自动短视频内容流水线</text>
  <text x="40" y="90" fill="#8B949E" font-size="16">Fully-automated short-video pipeline · 0 人工干预 · 基于 Hermes Agent 自研 skills</text>
  <text x="1200" y="58" text-anchor="end" fill="#3FB950" font-size="14" font-weight="600">● LIVE · 30 天 10 万+ 播放</text>

  <!-- ===== Stage cards ===== -->
  <!-- card geometry: width 196, height 230, y=150, step 248 -->

  <!-- Stage 1 -->
  <g>
    <rect x="20" y="150" width="196" height="230" rx="16" fill="#161B22" stroke="#30363D" stroke-width="1.5"/>
    <circle cx="52" cy="190" r="20" fill="#1F6FEB"/>
    <text x="52" y="197" text-anchor="middle" fill="#FFFFFF" font-size="18" font-weight="700">1</text>
    <text x="86" y="186" fill="#58A6FF" font-size="13" font-weight="600">STAGE</text>
    <text x="86" y="202" fill="#8B949E" font-size="11">SCRAPE</text>
    <text x="38" y="246" fill="#E6EDF3" font-size="19" font-weight="700">热点抓取</text>
    <text x="38" y="272" fill="#8B949E" font-size="12">GitHub Trending</text>
    <text x="38" y="290" fill="#8B949E" font-size="12">Top 10 · 按增长排序</text>
    <rect x="38" y="320" width="120" height="26" rx="13" fill="#0D1117" stroke="#30363D"/>
    <text x="98" y="337" text-anchor="middle" fill="#79C0FF" font-size="11" font-family="monospace">requests · bs4</text>
  </g>

  <!-- Stage 2 -->
  <g>
    <rect x="268" y="150" width="196" height="230" rx="16" fill="#161B22" stroke="#30363D" stroke-width="1.5"/>
    <circle cx="300" cy="190" r="20" fill="#8957E5"/>
    <text x="300" y="197" text-anchor="middle" fill="#FFFFFF" font-size="18" font-weight="700">2</text>
    <text x="334" y="186" fill="#D2A8FF" font-size="13" font-weight="600">STAGE</text>
    <text x="334" y="202" fill="#8B949E" font-size="11">SCRIPT</text>
    <text x="286" y="246" fill="#E6EDF3" font-size="19" font-weight="700">文案生成</text>
    <text x="286" y="272" fill="#8B949E" font-size="12">LLM 口播脚本</text>
    <text x="286" y="290" fill="#8B949E" font-size="12">Hook 模板库轮换</text>
    <rect x="286" y="320" width="120" height="26" rx="13" fill="#0D1117" stroke="#30363D"/>
    <text x="346" y="337" text-anchor="middle" fill="#D2A8FF" font-size="11" font-family="monospace">LLM API</text>
  </g>

  <!-- Stage 3 -->
  <g>
    <rect x="516" y="150" width="196" height="230" rx="16" fill="#161B22" stroke="#30363D" stroke-width="1.5"/>
    <circle cx="548" cy="190" r="20" fill="#1A7F37"/>
    <text x="548" y="197" text-anchor="middle" fill="#FFFFFF" font-size="18" font-weight="700">3</text>
    <text x="582" y="186" fill="#3FB950" font-size="13" font-weight="600">STAGE</text>
    <text x="582" y="202" fill="#8B949E" font-size="11">VOICE</text>
    <text x="534" y="246" fill="#E6EDF3" font-size="19" font-weight="700">配音合成</text>
    <text x="534" y="272" fill="#8B949E" font-size="12">男声 · 语速 +18%</text>
    <text x="534" y="290" fill="#8B949E" font-size="12">分段 TTS · 取时长</text>
    <rect x="534" y="320" width="120" height="26" rx="13" fill="#0D1117" stroke="#30363D"/>
    <text x="594" y="337" text-anchor="middle" fill="#56D364" font-size="11" font-family="monospace">edge-tts</text>
  </g>

  <!-- Stage 4 -->
  <g>
    <rect x="764" y="150" width="196" height="230" rx="16" fill="#161B22" stroke="#30363D" stroke-width="1.5"/>
    <circle cx="796" cy="190" r="20" fill="#BC4C00"/>
    <text x="796" y="197" text-anchor="middle" fill="#FFFFFF" font-size="18" font-weight="700">4</text>
    <text x="830" y="186" fill="#F0883E" font-size="13" font-weight="600">STAGE</text>
    <text x="830" y="202" fill="#8B949E" font-size="11">RENDER</text>
    <text x="782" y="246" fill="#E6EDF3" font-size="19" font-weight="700">视频合成</text>
    <text x="782" y="272" fill="#8B949E" font-size="12">Pillow 帧 + 字幕</text>
    <text x="782" y="290" fill="#8B949E" font-size="12">9:16 竖版 1080×1920</text>
    <rect x="782" y="320" width="150" height="26" rx="13" fill="#0D1117" stroke="#30363D"/>
    <text x="857" y="337" text-anchor="middle" fill="#FFA657" font-size="11" font-family="monospace">Pillow · ffmpeg</text>
  </g>

  <!-- Stage 5 -->
  <g>
    <rect x="1012" y="150" width="196" height="230" rx="16" fill="#161B22" stroke="#30363D" stroke-width="1.5"/>
    <circle cx="1044" cy="190" r="20" fill="#CF222E"/>
    <text x="1044" y="197" text-anchor="middle" fill="#FFFFFF" font-size="18" font-weight="700">5</text>
    <text x="1078" y="186" fill="#FF7B72" font-size="13" font-weight="600">STAGE</text>
    <text x="1078" y="202" fill="#8B949E" font-size="11">PUBLISH</text>
    <text x="1030" y="246" fill="#E6EDF3" font-size="19" font-weight="700">发布文案</text>
    <text x="1030" y="272" fill="#8B949E" font-size="12">4 套标题/描述/话题</text>
    <text x="1030" y="290" fill="#8B949E" font-size="12">推荐最优 → 抖音</text>
    <rect x="1030" y="320" width="120" height="26" rx="13" fill="#0D1117" stroke="#30363D"/>
    <text x="1090" y="337" text-anchor="middle" fill="#FF9A92" font-size="11" font-family="monospace">douyin-publish.md</text>
  </g>

  <!-- arrows between stages (y center 265) -->
  <line x1="220" y1="265" x2="262" y2="265" stroke="#58A6FF" stroke-width="3" marker-end="url(#arrow)"/>
  <line x1="468" y1="265" x2="510" y2="265" stroke="#58A6FF" stroke-width="3" marker-end="url(#arrow)"/>
  <line x1="716" y1="265" x2="758" y2="265" stroke="#58A6FF" stroke-width="3" marker-end="url(#arrow)"/>
  <line x1="964" y1="265" x2="1006" y2="265" stroke="#58A6FF" stroke-width="3" marker-end="url(#arrow)"/>

  <!-- feedback loop: publish -> knowledge base -> scrape -->
  <path d="M1110 380 C1110 470, 118 470, 118 386" fill="none" stroke="#D29922" stroke-width="2" stroke-dasharray="6 5" marker-end="url(#arrowLoop)"/>
  <rect x="528" y="452" width="184" height="34" rx="17" fill="#1C1917" stroke="#D29922" stroke-width="1.2"/>
  <text x="620" y="474" text-anchor="middle" fill="#E3B341" font-size="13" font-weight="600">项目知识库 · 回头客上下文</text>

  <!-- bottom metrics banner -->
  <rect x="20" y="520" width="1188" height="58" rx="14" fill="#0B2818" stroke="#1A7F37" stroke-width="1.2"/>
  <text x="60" y="556" fill="#3FB950" font-size="22" font-weight="700">10万+</text>
  <text x="60" y="572" fill="#8B949E" font-size="11">30 天播放量</text>
  <text x="300" y="556" fill="#3FB950" font-size="22" font-weight="700">+388</text>
  <text x="300" y="572" fill="#8B949E" font-size="11">净增粉丝</text>
  <text x="520" y="556" fill="#3FB950" font-size="22" font-weight="700">2,251</text>
  <text x="520" y="572" fill="#8B949E" font-size="11">作品点赞</text>
  <text x="760" y="556" fill="#3FB950" font-size="22" font-weight="700">≈ 0</text>
  <text x="760" y="572" fill="#8B949E" font-size="11">单条成片人工耗时</text>
  <text x="1000" y="556" fill="#3FB950" font-size="22" font-weight="700">100%</text>
  <text x="1000" y="572" fill="#8B949E" font-size="11">自动化产出</text>
</svg>
